<?xml version="1.0" standalone="no"?>
 <!DOCTYPE svg PUBLIC "-//W3C//DTD SVG 1.1//EN" 
 "http://www.w3.org/Graphics/SVG/1.1/DTD/svg11.dtd"> 
<svg
  xmlns:svg="http://www.w3.org/2000/svg"
  xmlns="http://www.w3.org/2000/svg"
  xmlns:xlink="http://www.w3.org/1999/xlink"
  version="1.1"
  width="297.0022mm" height="210.0072mm" viewBox="0.0000 0.0000 297.0022 210.0072">
<title>SVG Image created as capsule3_v3G-Edge_Cuts.svg date 2025/06/14 20:04:47 </title>
  <desc>Image generated by PCBNEW </desc>
<g style="fill:#000000; fill-opacity:1.0000;stroke:#000000; stroke-opacity:1.0000;
stroke-linecap:round; stroke-linejoin:round;"
 transform="translate(0 0) scale(1 1)">
<path style="fill:none; 
stroke:#000000; stroke-width:0.0500; stroke-opacity:1; 
stroke-linecap:round; stroke-linejoin:round;fill:none"
d="M 118.5166,111.2788
138.5015,111.2788
138.5015,123.2974
118.5166,123.2974
Z" /> 
</g>
<g style="fill:none; 
stroke:#000000; stroke-width:0.0500; stroke-opacity:1; 
stroke-linecap:round; stroke-linejoin:round;">
<path d="M178.4770 57.4297
L177.6743 54.4344
" />
<path d="M67.9492 107.0997
L67.1197 110.1785
" />
<path d="M81.2513 114.6995
L96.3477 118.7384
" />
<path d="M81.5964 110.7256 A0.6936 0.6936 0.0 0 0 81.0982 109.9086" />
<path d="M121.5995 85.4590
L135.0995 85.4590
" />
<path d="M163.9706 134.6388
L159.9220 119.5585
" />
<path d="M158.9599 58.6789 A0.6939 0.6939 0.0 0 0 158.4624 59.5002" />
<path d="M96.8295 119.6189
L92.8080 134.6300
" />
<path d="M142.9789 68.4734
L146.5046 81.6701
" />
<path d="M158.8202 63.4461 A0.6940 0.6940 0.0 0 0 159.3066 62.6279" />
<path d="M175.5091 114.6991 A0.6936 0.6936 0.0 0 0 176.0072 113.8807" />
<path d="M98.2894 59.5594 A0.6936 0.6936 0.0 0 0 97.8085 58.6787" />
<path d="M143.5091 67.5554
L158.8202 63.4461
" />
<path d="M175.7155 109.8940 A0.7500 0.7500 0.0 0 0 175.1847 110.8128" />
<path d="M188.8225 107.1204 A0.6940 0.6940 0.0 0 0 187.9390 106.6279" />
<path d="M79.9183 53.8725 A0.6939 0.6939 0.0 0 0 79.0990 54.3707" />
<path d="M189.6368 110.1692 A0.6939 0.6939 0.0 0 0 190.5196 110.6601" />
<path d="M113.8024 68.4843 A0.7501 0.7501 0.0 0 0 113.2715 67.5685" />
<path d="M66.3004 110.6753 A0.6936 0.6936 0.0 0 0 67.1197 110.1785" />
<path d="M113.1679 85.4557
L121.5995 85.4590
" />
<path d="M77.4598 57.9382 A0.6934 0.6934 0.0 0 0 78.2768 57.4400" />
<path d="M97.4795 62.5789 A0.6938 0.6938 0.0 0 0 97.9608 63.4594" />
<path d="M179.3594 57.9202
L194.6876 53.8262
" />
<path d="M113.5596 133.9197
L111.9795 139.8088
" />
<path d="M93.2896 135.5090
L111.1600 140.3064
" />
<path d="M81.5964 110.7256
L80.7527 113.8816
" />
<path d="M158.4624 59.5002
L159.3066 62.6279
" />
<path d="M80.7527 113.8816 A0.6938 0.6938 0.0 0 0 81.2513 114.6995" />
<path d="M160.4202 118.7388
L175.5091 114.6991
" />
<path d="M158.9599 58.6789
L176.7556 53.9042
" />
<path d="M117.5010 130.9861 A4.1529 4.1529 0.0 0 0 113.5596 133.9197" />
<path d="M175.7155 109.8940
L187.9390 106.6279
" />
<path d="M92.8080 134.6300 A0.6937 0.6937 0.0 0 0 93.2896 135.5090" />
<path d="M189.6369 110.1692
L188.8225 107.1204
" />
<path d="M68.7676 106.6024 A0.6939 0.6939 0.0 0 0 67.9492 107.0997" />
<path d="M62.0809 53.8299
L77.4598 57.9382
" />
<path d="M97.4795 62.5789
L98.2894 59.5594
" />
<path d="M190.5196 110.6601
L208.5888 105.8047
" />
<path d="M110.2683 81.6905 A3.0000 3.0000 0.0 0 0 113.1680 85.4557" />
<path d="M110.2683 81.6905
L113.8024 68.4843
" />
<path d="M117.5010 130.9861
L139.2376 130.9761
" />
<path d="M143.2856 134.1939 A4.1527 4.1527 0.0 0 0 139.2376 130.9761" />
<path d="M176.0072 113.8807
L175.1847 110.8128
" />
<path d="M143.5091 67.5554 A0.7500 0.7500 0.0 0 0 142.9789 68.4734" />
<path d="M79.9183 53.8725
L97.8085 58.6787
" />
<path d="M79.0990 54.3707
L78.2768 57.4400
" />
<path d="M160.4202 118.7388 A0.6939 0.6939 0.0 0 0 159.9220 119.5585" />
<path d="M143.6248 85.4444 A3.0000 3.0000 0.0 0 0 146.5046 81.6701" />
<path d="M195.6056 54.3571 A0.7499 0.7499 0.0 0 0 194.6876 53.8262" />
<path d="M178.4770 57.4297 A0.6939 0.6939 0.0 0 0 179.3594 57.9202" />
<path d="M175.5091 114.6991
L175.3875 114.7316
" />
<path d="M68.7676 106.6024
L81.0982 109.9086
" />
<path d="M97.9608 63.4594
L113.2715 67.5685
" />
<path d="M177.6743 54.4345 A0.7499 0.7499 0.0 0 0 176.7556 53.9042" />
<path d="M96.8295 119.6189 A0.6937 0.6937 0.0 0 0 96.3477 118.7384" />
<path d="M135.0995 85.4590
L143.6248 85.4444
" />
<path d="M48.1842 105.8085
L66.3004 110.6753
" />
<path d="M47.6543 104.8905 A0.7500 0.7500 0.0 0 0 48.1842 105.8085" />
<path d="M208.5888 105.8047 A0.7500 0.7500 0.0 0 0 209.1156 104.8875" />
<path d="M209.1156 104.8875
L195.6056 54.3571
" />
<path d="M143.2856 134.1939
L144.7791 139.8074
" />
<path d="M62.0809 53.8299 A0.7500 0.7500 0.0 0 0 61.1627 54.3608" />
<path d="M61.1627 54.3608
L47.6542 104.8905
" />
<path d="M144.7792 139.8073 A0.6934 0.6934 0.0 0 0 145.6595 140.2902" />
<path d="M111.1600 140.3064 A0.6937 0.6937 0.0 0 0 111.9795 139.8088" />
<path d="M145.6595 140.2902
L163.4890 135.5191
" />
<path d="M163.4890 135.5191 A0.6936 0.6936 0.0 0 0 163.9706 134.6388" />
</g> 
</svg>
