<?xml version="1.0" encoding="UTF-8" standalone="no"?>
<svg
   version="1.1"
   width="297.0022mm"
   height="210.0072mm"
   viewBox="0.0000 0.0000 297.0022 210.0072"
   id="svg82"
   sodipodi:docname="capsule3_v3G-Edge_Cuts.svg"
   inkscape:version="1.4 (e7c3feb1, 2024-10-09)"
   xmlns:inkscape="http://www.inkscape.org/namespaces/inkscape"
   xmlns:sodipodi="http://sodipodi.sourceforge.net/DTD/sodipodi-0.dtd"
   xmlns="http://www.w3.org/2000/svg"
   xmlns:svg="http://www.w3.org/2000/svg">
  <defs
     id="defs82" />
  <sodipodi:namedview
     id="namedview82"
     pagecolor="#ffffff"
     bordercolor="#000000"
     borderopacity="0.25"
     inkscape:showpageshadow="2"
     inkscape:pageopacity="0.0"
     inkscape:pagecheckerboard="0"
     inkscape:deskcolor="#d1d1d1"
     inkscape:document-units="mm"
     inkscape:zoom="1.0011274"
     inkscape:cx="396.05347"
     inkscape:cy="433.0118"
     inkscape:window-width="1728"
     inkscape:window-height="1080"
     inkscape:window-x="0"
     inkscape:window-y="37"
     inkscape:window-maximized="0"
     inkscape:current-layer="svg82" />
  <title
     id="title1">SVG Image created as capsule3_v3G-Edge_Cuts.svg date 2025/06/14 09:50:20 </title>
  <desc
     id="desc1">Image generated by PCBNEW </desc>
  <g
     style="fill:#000000; fill-opacity:1.0000;stroke:#000000; stroke-opacity:1.0000; stroke-linecap:round; stroke-linejoin:round;"
     transform="translate(0 0) scale(1 1)"
     id="g1" />
  <path
     style="font-weight:900;font-stretch:condensed;font-size:68.4731px;font-family:'Helvetica Neue';-inkscape-font-specification:'Helvetica Neue Heavy Condensed';text-align:center;letter-spacing:-9.21891px;word-spacing:0px;text-anchor:middle;stroke-width:0.35663"
     d="M 82.806101,104.07106 H 95.542097 V 55.592106 h -9.175395 q -0.616258,2.122666 -1.574881,3.629074 -0.958624,1.437936 -2.465032,2.328086 -1.506408,0.821677 -3.629074,1.232516 -2.122666,0.342365 -5.067009,0.342365 v 7.94288 h 9.175395 z M 110.69964,88.322247 V 72.299542 q 0,-5.135482 0.89015,-6.915783 0.89015,-1.848773 2.87587,-1.848773 1.98572,0 2.87587,1.848773 0.89015,1.780301 0.89015,6.915783 v 16.022705 q 0,5.135483 -0.89015,6.984257 -0.89015,1.7803 -2.87587,1.7803 -1.98572,0 -2.87587,-1.7803 -0.89015,-1.848774 -0.89015,-6.984257 z M 97.963643,80.310895 q 0,7.395095 0.958624,12.188211 1.027096,4.724644 3.012813,7.532044 2.0542,2.73892 5.13549,3.76602 3.14976,1.02709 7.39509,1.02709 4.24533,0 7.32662,-1.02709 3.14976,-1.0271 5.13548,-3.76602 2.0542,-2.8074 3.01282,-7.532044 1.0271,-4.793116 1.0271,-12.188211 0,-7.326622 -1.0271,-12.119739 -0.95862,-4.793116 -3.01282,-7.600514 -1.98572,-2.807397 -5.13548,-3.902966 -3.08129,-1.09557 -7.32662,-1.09557 -4.24533,0 -7.39509,1.09557 -3.08129,1.095569 -5.13549,3.902966 -1.985717,2.807398 -3.012813,7.600514 -0.958624,4.793117 -0.958624,12.119739 z m 25.086147,-25.129627 10.75027,24.10253 -11.36653,24.787262 h 14.03698 l 4.86159,-14.721716 h 0.13695 l 4.86159,14.721716 h 14.2424 l -11.435,-24.787262 10.61333,-24.10253 h -14.24241 l -4.03991,14.173931 h -0.13695 l -4.03991,-14.173931 z m 29.19444,16.844382 h 11.91432 v -2.054193 q 0,-2.054193 0.27389,-3.286709 0.34237,-1.300989 0.82168,-1.98572 0.54779,-0.684731 1.16404,-0.89015 0.61626,-0.273892 1.30099,-0.273892 1.50641,0 2.39656,1.164042 0.89015,1.164043 0.89015,4.245333 0,2.738923 -0.82168,4.450751 -0.7532,1.643354 -2.60197,3.492128 l -8.49067,8.62761 q -4.17686,4.313806 -5.75174,8.901503 -1.50641,4.519225 -1.50641,9.654707 h 31.90847 v -9.586234 h -16.70744 q 0.34237,-1.095569 1.30099,-2.122666 1.0271,-1.027096 1.84877,-1.848773 l 7.53205,-7.326622 q 2.73892,-2.738924 4.38227,-6.094106 1.64336,-3.355182 1.64336,-8.285245 0,-2.738924 -0.68473,-5.135482 -0.61626,-2.396559 -2.39656,-4.176859 -1.71183,-1.848774 -4.72464,-2.87587 -3.01282,-1.027097 -7.80594,-1.027097 -4.99853,0 -8.07982,1.164043 -3.08129,1.164043 -4.79312,3.355182 -1.71183,2.122666 -2.32809,5.203955 -0.61625,3.012817 -0.68473,6.710364 z m 27.68812,-16.844382 v 48.889792 h 12.736 V 83.939969 h 7.80593 v 20.131091 h 12.736 V 55.181268 h -12.736 V 73.12122 h -7.80593 V 55.181268 Z m 49.12013,14.105458 h 11.91432 q 0,-7.874406 -3.76602,-11.435007 -3.69754,-3.629075 -12.05126,-3.629075 -8.07983,0 -12.05127,3.902967 -3.97144,3.902967 -3.97144,11.366534 0,4.313806 1.43794,6.984256 1.50641,2.670451 3.69754,4.313806 2.25962,1.643354 4.86159,2.67045 2.60198,1.027097 4.79312,2.054193 2.25961,0.958624 3.69755,2.396559 1.50641,1.369462 1.50641,3.76602 0,1.98572 -1.09557,3.355182 -1.0271,1.369462 -3.01282,1.369462 -1.84877,0 -3.01282,-1.232516 -1.16404,-1.300989 -1.16404,-4.450751 v -1.164043 h -12.32516 v 1.711828 q 0,3.834493 1.09557,6.436471 1.09557,2.601978 3.14977,4.245328 2.12266,1.57489 5.13548,2.19114 3.08129,0.68473 7.05273,0.68473 8.42219,0 12.87294,-3.49212 4.45075,-3.560605 4.45075,-11.366538 0,-4.450752 -1.57488,-7.189676 -1.50641,-2.807397 -3.83449,-4.519224 -2.32809,-1.711828 -4.99854,-2.738924 -2.67045,-1.09557 -4.99854,-2.122666 -2.32808,-1.027097 -3.90296,-2.396559 -1.50641,-1.437935 -1.50641,-3.834493 0,-1.643354 0.95862,-2.944343 0.95863,-1.369462 3.01282,-1.369462 1.84877,0 2.73892,1.574881 0.89015,1.506408 0.89015,3.697547 z"
     id="text82"
     transform="scale(0.81085351,1.2332684)"
     aria-label="10X2HS" />
</svg>
